<svg width="206" height="58" viewBox="0 0 206 58" fill="none" xmlns="http://www.w3.org/2000/svg">
<path fill-rule="evenodd" clip-rule="evenodd" d="M169.85 38.4479C173.898 38.4479 177.101 33.7995 177.101 28.0799V14.2559H180.352V28.0799C180.352 35.6831 175.67 41.8175 169.915 41.8175C164.16 41.8175 159.479 35.6831 159.479 28.0799V14.2559H162.73V28.0799C162.6 33.8859 165.802 38.5343 169.834 38.5343L169.85 38.4479ZM91.5418 42.0241H88.2904V39.5531C86.1937 41.1132 83.6969 41.9516 81.1375 41.955C75.1229 41.9978 69.8654 37.651 68.4241 31.4439C66.9829 25.2368 69.7339 18.7889 75.0765 15.8521C80.419 12.9153 86.9592 14.2558 90.8915 19.0936L88.5018 21.3573C85.5121 17.8043 80.6284 16.876 76.6656 19.1074C72.7028 21.3389 70.682 26.155 71.768 30.78C72.8539 35.405 76.7668 38.6469 81.2513 38.6373C83.9852 38.6433 86.5855 37.3812 88.3717 35.1813H79.5932V31.7253H91.5743L91.5418 42.0241ZM36.5453 14.4793H33.2939V41.989H46.2992V38.533H36.5453V14.4793ZM56.429 35.2153C61.8159 35.2153 66.1829 30.5733 66.1829 24.8473C66.1829 19.1212 61.8159 14.4793 56.429 14.4793C53.842 14.4793 51.3611 15.5716 49.5319 17.516C47.7026 19.4603 46.675 22.0975 46.675 24.8473C46.675 30.5733 51.042 35.2153 56.429 35.2153ZM56.4282 31.7614C60.0195 31.7614 62.9309 28.6668 62.9309 24.8494C62.9309 21.032 60.0195 17.9374 56.4282 17.9374C52.8369 17.9374 49.9256 21.032 49.9256 24.8494C49.9435 28.6533 52.8496 31.7269 56.4282 31.7269V31.7614ZM62.9309 42.0265V38.5705H49.9256V42.0265H62.9309ZM113.261 24.9164C113.261 19.1903 108.894 14.5484 103.507 14.5484L103.539 14.4793C100.936 14.47 98.4363 15.5678 96.5982 17.5281C94.76 19.4885 93.7356 22.1487 93.7529 24.9164C93.7529 30.6425 98.1199 35.2844 103.507 35.2844C108.894 35.2844 113.261 30.6425 113.261 24.9164ZM103.506 31.8289C107.097 31.8289 110.008 28.7343 110.008 24.9169C110.008 21.0995 107.097 18.0049 103.506 18.0049C99.9143 18.0049 97.0029 21.0995 97.0029 24.9169C97.0564 28.7072 99.9719 31.7446 103.538 31.7252L103.506 31.8289ZM110.008 42.0947V38.6387H97.0029V42.0947H110.008ZM116.724 14.4793H119.975V41.9545H116.724V14.4793ZM127.728 14.4808H124.477V42.0078H127.728V35.0958H128.232C131.947 35.5243 135.566 33.6587 137.55 30.2923C139.534 26.926 139.534 22.6507 137.55 19.2843C135.566 15.9179 131.947 14.0524 128.232 14.4808C128.065 14.4619 127.896 14.4619 127.728 14.4808ZM127.728 17.936V18.0166L127.712 18.0224L127.728 17.936ZM127.728 18.0166C127.892 17.9591 128.061 17.9204 128.232 17.9015C130.739 17.5466 133.213 18.7694 134.573 21.0363C135.933 23.3032 135.933 26.2028 134.573 28.4697C133.213 30.7366 130.739 31.9594 128.232 31.6045H127.728V18.0166ZM151.1 16.5113L151.154 16.4661L151.138 16.5525L151.1 16.5113ZM146.57 14.5653C148.27 14.5119 149.913 15.2183 151.1 16.5113L148.748 18.4879C147.9 17.5466 146.617 17.2126 145.456 17.6312C144.295 18.0499 143.468 19.1454 143.334 20.4405V20.717C143.334 22.2376 144.326 23.2572 146.261 23.3954C153.706 23.8792 157.12 27.5944 157.12 32.502V32.813C156.727 36.7795 154.195 40.1385 150.638 41.4098C147.082 42.6811 143.155 41.6312 140.587 38.7228L143.074 36.6837C144.246 38.0186 145.91 38.7388 147.626 38.6536C150.879 38.8359 153.69 36.2602 153.999 32.813V32.5711C153.999 27.9573 149.74 27.1106 146.049 26.7304C142.635 26.3848 140.181 24.1212 140.181 20.8552V20.717C140.431 17.1859 143.239 14.4818 146.57 14.5653ZM202.053 41.9026H205.304L205.271 14.4793L194.542 29.4956L183.813 14.4793V41.9545H187.064V24.7954L194.558 35.1634L202.053 24.7954V41.9026Z" fill="white"/>
<path fill-rule="evenodd" clip-rule="evenodd" d="M17.6872 10.3495C17.6872 5.15789 13.7278 0.949219 8.84359 0.949219C3.95941 0.949219 0 5.15789 0 10.3495V38.7751L7.28296 44.322V57.835H10.4042V44.322L17.6872 38.7751V10.3495ZM14.566 26.2488L10.4043 30.6724V26.5252L14.566 22.1016V26.2488ZM7.34821 26.5252L3.18652 22.1016V26.2488L7.34821 30.6724V26.5252ZM14.5657 17.4007L8.84342 23.4832L3.12109 17.2624V13.1152L8.84342 19.1978L14.5657 13.1152V17.4007ZM14.3708 8.77625C13.6912 6.12337 11.4301 4.27834 8.84351 4.26617V4.19705C6.23837 4.21764 3.97118 6.09596 3.31627 8.77625L8.84351 14.6342L14.3708 8.77625ZM3.12109 37.0978V30.877L7.28278 35.3006V40.2427L3.12109 37.0978ZM10.4041 35.3007V40.26L14.5658 37.0805V30.877L10.4041 35.3007Z" fill="#ED1465"/>
</svg>
