<svg width="203" height="55" viewBox="0 0 203 55" fill="none" xmlns="http://www.w3.org/2000/svg">
<path fill-rule="evenodd" clip-rule="evenodd" d="M167.294 36.256C171.281 36.256 174.435 31.7618 174.435 26.2317V12.866H177.638V26.2317C177.638 33.5829 173.026 39.5139 167.358 39.5139C161.69 39.5139 157.078 33.5829 157.078 26.2317V12.866H160.281V26.2317C160.153 31.8453 163.307 36.3395 167.278 36.3395L167.294 36.256ZM90.1637 39.7132H86.9613V37.324C84.8961 38.8324 82.437 39.643 79.9161 39.6463C73.992 39.6877 68.8136 35.485 67.394 29.4837C65.9744 23.4824 68.684 17.2482 73.9462 14.4088C79.2084 11.5693 85.6502 12.8653 89.5233 17.5428L87.1695 19.7314C84.2248 16.2962 79.4146 15.3987 75.5115 17.5562C71.6082 19.7136 69.6179 24.3701 70.6875 28.8418C71.7571 33.3134 75.6111 36.4479 80.0282 36.4386C82.7209 36.4444 85.282 35.2241 87.0414 33.0971H78.3949V29.7557H90.1958L90.1637 39.7132ZM35.9954 13.082H32.793V39.6798H45.6025V36.3383H35.9954V13.082ZM55.5798 33.1306C60.8857 33.1306 65.187 28.6425 65.187 23.1063C65.187 17.57 60.8857 13.082 55.5798 13.082C53.0319 13.082 50.5882 14.1381 48.7865 16.018C46.9848 17.8979 45.9727 20.4477 45.9727 23.1063C45.9727 28.6425 50.2739 33.1306 55.5798 33.1306ZM55.5796 29.7912C59.1169 29.7912 61.9844 26.7992 61.9844 23.1083C61.9844 19.4175 59.1169 16.4255 55.5796 16.4255C52.0423 16.4255 49.1748 19.4175 49.1748 23.1083C49.1924 26.7861 52.0548 29.7578 55.5796 29.7578V29.7912ZM61.9844 39.716V36.3745H49.1748V39.716H61.9844ZM111.556 23.1732C111.556 17.6369 107.255 13.1489 101.949 13.1489L101.981 13.082C99.4165 13.073 96.9549 14.1344 95.1444 16.0298C93.3339 17.9252 92.3249 20.4972 92.342 23.1732C92.342 28.7094 96.6433 33.1975 101.949 33.1975C107.255 33.1975 111.556 28.7094 111.556 23.1732ZM101.949 29.857C105.486 29.857 108.354 26.8649 108.354 23.1741C108.354 19.4833 105.486 16.4912 101.949 16.4912C98.4115 16.4912 95.5439 19.4833 95.5439 23.1741C95.5966 26.8388 98.4682 29.7755 101.981 29.7567L101.949 29.857ZM108.354 39.7817V36.4403H95.5439V39.7817H108.354ZM114.967 13.082H118.169V39.6464H114.967V13.082ZM125.806 13.0834H122.604V39.6979H125.806V33.015H126.302C129.962 33.4292 133.526 31.6255 135.48 28.3707C137.434 25.116 137.434 20.9824 135.48 17.7276C133.526 14.4729 129.962 12.6691 126.302 13.0834C126.137 13.0651 125.971 13.0651 125.806 13.0834ZM125.806 16.4243V16.5023L125.79 16.5079L125.806 16.4243ZM125.806 16.5023C125.967 16.4466 126.134 16.4093 126.302 16.3909C128.772 16.0478 131.208 17.2301 132.548 19.4218C133.888 21.6136 133.888 24.417 132.548 26.6088C131.208 28.8006 128.772 29.9828 126.302 29.6397H125.806V16.5023ZM148.826 15.0465L148.879 15.0029L148.863 15.0864L148.826 15.0465ZM144.364 13.1651C146.039 13.1135 147.657 13.7964 148.826 15.0465L146.51 16.9576C145.675 16.0476 144.41 15.7246 143.267 16.1293C142.124 16.5341 141.309 17.5934 141.178 18.8455V19.1128C141.178 20.583 142.154 21.5688 144.06 21.7024C151.393 22.1702 154.756 25.7623 154.756 30.5071V30.8078C154.369 34.6429 151.875 37.8905 148.372 39.1196C144.869 40.3488 141.001 39.3337 138.472 36.5217L140.921 34.5502C142.076 35.8408 143.715 36.5372 145.405 36.4549C148.609 36.6311 151.377 34.1408 151.681 30.8078V30.5739C151.681 26.1131 147.486 25.2945 143.852 24.9269C140.489 24.5928 138.071 22.4041 138.071 19.2465V19.1128C138.318 15.6988 141.084 13.0843 144.364 13.1651ZM199.012 39.5962H202.215L202.183 13.082L191.615 27.6005L181.047 13.082V39.6464H184.249V23.0561L191.631 33.0805L199.012 23.0561V39.5962Z" fill="#27213C"/>
<path fill-rule="evenodd" clip-rule="evenodd" d="M17.421 9.0887C17.421 4.06915 13.5212 0 8.71051 0C3.89983 0 0 4.06915 0 9.0887V36.572L7.17336 41.935V55H10.2477V41.935L17.421 36.572V9.0887ZM14.3461 24.4606L10.2471 28.7376V24.7279L14.3461 20.4508V24.4606ZM7.23774 24.7279L3.13867 20.4508V24.4606L7.23774 28.7376V24.7279ZM14.3466 15.9061L8.71043 21.787L3.07422 15.7724V11.7627L8.71043 17.6436L14.3466 11.7627V15.9061ZM14.1547 7.56751C13.4855 5.00258 11.2583 3.21871 8.71067 3.20694V3.14012C6.14473 3.16002 3.91166 4.97607 3.2666 7.56751L8.71067 13.2312L14.1547 7.56751ZM3.07422 34.9502V28.9356L7.17328 33.2126V37.9909L3.07422 34.9502ZM10.2471 33.2126V38.0076L14.3461 34.9335V28.9356L10.2471 33.2126Z" fill="#ED1465"/>
</svg>
